<?xml version="1.0" encoding="UTF-8"?>
<svg xmlns="http://www.w3.org/2000/svg" width="1172" height="308" viewBox="0 0 1172 308">
  <title>Meduloc logo</title>
  <g id="wordmark" aria-label="meduloc">
    <path d="M 638.00 75.00 L 638.00 148.00 L 639.00 149.00 L 640.00 162.00 L 643.00 171.00 L 648.00 180.00 L 657.00 189.00 L 663.00 193.00 L 674.00 197.00 L 678.00 197.00 L 679.00 198.00 L 703.00 198.00 L 704.00 197.00 L 708.00 197.00 L 714.00 195.00 L 725.00 189.00 L 735.00 178.00 L 736.00 175.00 L 738.00 173.00 L 742.00 161.00 L 743.00 146.00 L 744.00 145.00 L 744.00 75.00 L 728.00 75.00 L 728.00 147.00 L 727.00 148.00 L 726.00 161.00 L 722.00 169.00 L 712.00 179.00 L 700.00 184.00 L 682.00 184.00 L 676.00 182.00 L 666.00 176.00 L 659.00 168.00 L 655.00 158.00 L 655.00 153.00 L 654.00 152.00 L 654.00 75.00 Z" fill="#004C80" fill-rule="evenodd"/>
<path d="M 1010.00 75.00 L 999.00 80.00 L 989.00 87.00 L 979.00 98.00 L 972.00 110.00 L 972.00 112.00 L 970.00 115.00 L 969.00 122.00 L 968.00 123.00 L 968.00 128.00 L 967.00 129.00 L 967.00 143.00 L 968.00 144.00 L 969.00 153.00 L 973.00 162.00 L 973.00 164.00 L 978.00 172.00 L 987.00 182.00 L 998.00 190.00 L 1012.00 196.00 L 1020.00 197.00 L 1021.00 198.00 L 1047.00 198.00 L 1048.00 197.00 L 1053.00 197.00 L 1057.00 195.00 L 1060.00 195.00 L 1073.00 189.00 L 1080.00 184.00 L 1090.00 173.00 L 1089.00 170.00 L 1080.00 164.00 L 1077.00 164.00 L 1071.00 171.00 L 1063.00 177.00 L 1055.00 181.00 L 1049.00 183.00 L 1046.00 183.00 L 1045.00 184.00 L 1024.00 184.00 L 1023.00 183.00 L 1020.00 183.00 L 1014.00 181.00 L 1002.00 174.00 L 993.00 165.00 L 987.00 155.00 L 987.00 153.00 L 985.00 150.00 L 984.00 143.00 L 983.00 142.00 L 983.00 127.00 L 984.00 126.00 L 985.00 119.00 L 992.00 106.00 L 1006.00 93.00 L 1020.00 87.00 L 1023.00 87.00 L 1024.00 86.00 L 1045.00 86.00 L 1046.00 87.00 L 1053.00 88.00 L 1065.00 94.00 L 1069.00 97.00 L 1077.00 106.00 L 1080.00 106.00 L 1085.00 102.00 L 1088.00 101.00 L 1090.00 99.00 L 1090.00 97.00 L 1087.00 93.00 L 1075.00 82.00 L 1065.00 77.00 L 1053.00 73.00 L 1049.00 73.00 L 1048.00 72.00 L 1022.00 72.00 L 1021.00 73.00 L 1017.00 73.00 L 1016.00 74.00 Z" fill="#004C80" fill-rule="evenodd"/>
<path d="M 861.00 74.00 L 848.00 80.00 L 842.00 84.00 L 829.00 98.00 L 822.00 111.00 L 820.00 117.00 L 820.00 120.00 L 819.00 121.00 L 819.00 126.00 L 818.00 127.00 L 818.00 143.00 L 819.00 144.00 L 819.00 149.00 L 820.00 150.00 L 820.00 153.00 L 822.00 159.00 L 824.00 162.00 L 825.00 166.00 L 831.00 175.00 L 843.00 187.00 L 855.00 194.00 L 864.00 197.00 L 868.00 197.00 L 869.00 198.00 L 893.00 198.00 L 894.00 197.00 L 898.00 197.00 L 899.00 196.00 L 905.00 195.00 L 915.00 190.00 L 923.00 184.00 L 932.00 174.00 L 940.00 160.00 L 942.00 154.00 L 942.00 151.00 L 943.00 150.00 L 943.00 146.00 L 944.00 145.00 L 944.00 125.00 L 943.00 124.00 L 943.00 120.00 L 942.00 119.00 L 941.00 113.00 L 936.00 102.00 L 931.00 95.00 L 919.00 83.00 L 907.00 76.00 L 898.00 73.00 L 894.00 73.00 L 893.00 72.00 L 869.00 72.00 L 868.00 73.00 Z M 872.00 86.00 L 890.00 86.00 L 891.00 87.00 L 897.00 88.00 L 910.00 96.00 L 920.00 107.00 L 925.00 116.00 L 927.00 122.00 L 927.00 125.00 L 928.00 126.00 L 928.00 144.00 L 927.00 145.00 L 926.00 152.00 L 920.00 164.00 L 916.00 169.00 L 907.00 177.00 L 904.00 178.00 L 902.00 180.00 L 890.00 184.00 L 872.00 184.00 L 871.00 183.00 L 865.00 182.00 L 854.00 176.00 L 844.00 166.00 L 840.00 160.00 L 836.00 151.00 L 835.00 143.00 L 834.00 142.00 L 834.00 129.00 L 835.00 128.00 L 835.00 123.00 L 837.00 117.00 L 843.00 106.00 L 855.00 94.00 L 863.00 89.00 Z" fill="#004C80" fill-rule="evenodd"/>
<path d="M 375.00 73.00 L 369.00 75.00 L 356.00 82.00 L 347.00 90.00 L 339.00 101.00 L 334.00 111.00 L 332.00 117.00 L 332.00 120.00 L 331.00 121.00 L 331.00 126.00 L 330.00 127.00 L 330.00 143.00 L 331.00 144.00 L 332.00 153.00 L 335.00 162.00 L 342.00 174.00 L 354.00 187.00 L 366.00 194.00 L 375.00 197.00 L 379.00 197.00 L 380.00 198.00 L 406.00 198.00 L 407.00 197.00 L 414.00 196.00 L 427.00 190.00 L 434.00 185.00 L 444.00 174.00 L 448.00 168.00 L 451.00 161.00 L 440.00 155.00 L 437.00 155.00 L 431.00 165.00 L 420.00 176.00 L 417.00 177.00 L 415.00 179.00 L 401.00 184.00 L 383.00 184.00 L 370.00 179.00 L 358.00 169.00 L 353.00 162.00 L 349.00 154.00 L 348.00 148.00 L 347.00 147.00 L 346.00 136.00 L 347.00 135.00 L 455.00 135.00 L 455.00 127.00 L 454.00 126.00 L 453.00 116.00 L 451.00 110.00 L 444.00 97.00 L 432.00 84.00 L 426.00 80.00 L 416.00 75.00 L 406.00 73.00 L 405.00 72.00 L 380.00 72.00 L 379.00 73.00 Z M 348.00 121.00 L 350.00 115.00 L 356.00 104.00 L 362.00 97.00 L 370.00 91.00 L 383.00 86.00 L 401.00 86.00 L 402.00 87.00 L 405.00 87.00 L 411.00 89.00 L 420.00 94.00 L 432.00 107.00 L 438.00 122.00 L 437.00 123.00 L 349.00 123.00 Z" fill="#004C80" fill-rule="evenodd"/>
<path d="M 122.00 75.00 L 122.00 195.00 L 137.00 195.00 L 137.00 134.00 L 138.00 133.00 L 138.00 124.00 L 139.00 123.00 L 139.00 118.00 L 140.00 117.00 L 141.00 111.00 L 146.00 102.00 L 152.00 95.00 L 157.00 91.00 L 169.00 86.00 L 183.00 86.00 L 190.00 89.00 L 197.00 95.00 L 202.00 104.00 L 203.00 114.00 L 204.00 115.00 L 204.00 195.00 L 220.00 195.00 L 220.00 129.00 L 221.00 128.00 L 222.00 116.00 L 224.00 110.00 L 229.00 101.00 L 238.00 92.00 L 245.00 88.00 L 251.00 86.00 L 266.00 86.00 L 276.00 91.00 L 281.00 96.00 L 284.00 101.00 L 285.00 107.00 L 286.00 108.00 L 286.00 115.00 L 287.00 116.00 L 287.00 195.00 L 303.00 195.00 L 303.00 117.00 L 302.00 116.00 L 302.00 108.00 L 301.00 107.00 L 301.00 103.00 L 300.00 102.00 L 299.00 96.00 L 295.00 88.00 L 289.00 81.00 L 282.00 76.00 L 271.00 72.00 L 252.00 72.00 L 251.00 73.00 L 245.00 74.00 L 237.00 78.00 L 230.00 83.00 L 225.00 88.00 L 217.00 99.00 L 212.00 88.00 L 209.00 84.00 L 199.00 76.00 L 195.00 75.00 L 192.00 73.00 L 189.00 73.00 L 188.00 72.00 L 169.00 72.00 L 168.00 73.00 L 162.00 74.00 L 152.00 79.00 L 147.00 83.00 L 138.00 94.00 L 137.00 93.00 L 137.00 75.00 Z" fill="#004C80" fill-rule="evenodd"/>
<path d="M 776.00 28.00 L 776.00 195.00 L 791.00 195.00 L 791.00 28.00 Z" fill="#004C80" fill-rule="evenodd"/>
<path d="M 605.00 28.00 L 589.00 28.00 L 589.00 93.00 L 588.00 94.00 L 576.00 82.00 L 563.00 75.00 L 557.00 73.00 L 554.00 73.00 L 553.00 72.00 L 530.00 72.00 L 529.00 73.00 L 525.00 73.00 L 516.00 76.00 L 504.00 83.00 L 488.00 100.00 L 482.00 112.00 L 481.00 118.00 L 480.00 119.00 L 480.00 123.00 L 479.00 124.00 L 479.00 146.00 L 480.00 147.00 L 480.00 151.00 L 481.00 152.00 L 482.00 158.00 L 488.00 170.00 L 498.00 182.00 L 510.00 191.00 L 521.00 196.00 L 524.00 196.00 L 529.00 198.00 L 552.00 198.00 L 553.00 197.00 L 557.00 197.00 L 566.00 193.00 L 568.00 193.00 L 579.00 186.00 L 588.00 177.00 L 589.00 178.00 L 589.00 195.00 L 605.00 195.00 Z M 533.00 86.00 L 552.00 86.00 L 553.00 87.00 L 559.00 88.00 L 570.00 94.00 L 583.00 108.00 L 588.00 118.00 L 588.00 121.00 L 590.00 126.00 L 590.00 144.00 L 589.00 145.00 L 589.00 149.00 L 587.00 155.00 L 582.00 164.00 L 578.00 169.00 L 570.00 176.00 L 561.00 181.00 L 555.00 183.00 L 552.00 183.00 L 551.00 184.00 L 534.00 184.00 L 533.00 183.00 L 530.00 183.00 L 524.00 181.00 L 514.00 175.00 L 505.00 166.00 L 501.00 160.00 L 495.00 145.00 L 495.00 139.00 L 494.00 138.00 L 495.00 125.00 L 496.00 124.00 L 497.00 118.00 L 502.00 108.00 L 515.00 94.00 L 524.00 89.00 Z" fill="#004C80" fill-rule="evenodd"/>
  </g>
  <g id="medical-instrument-mark" aria-label="medical instrument">
    <path d="M 39.00 215.00 L 43.00 222.00 L 45.00 232.00 L 46.00 233.00 L 46.00 237.00 L 47.00 238.00 L 48.00 251.00 L 49.00 252.00 L 49.00 261.00 L 50.00 262.00 L 50.00 271.00 L 57.00 270.00 L 69.00 265.00 L 69.00 259.00 L 68.00 258.00 L 68.00 253.00 L 67.00 252.00 L 67.00 247.00 L 65.00 242.00 L 65.00 238.00 L 63.00 234.00 L 63.00 231.00 L 58.00 220.00 L 54.00 217.00 L 46.00 216.00 L 45.00 215.00 Z" fill="#77787B" fill-rule="evenodd"/>
<path d="M 17.00 215.00 L 21.00 222.00 L 23.00 232.00 L 24.00 233.00 L 24.00 237.00 L 25.00 238.00 L 26.00 250.00 L 27.00 251.00 L 27.00 260.00 L 28.00 261.00 L 28.00 273.00 L 43.00 273.00 L 44.00 272.00 L 47.00 272.00 L 47.00 264.00 L 46.00 263.00 L 46.00 256.00 L 45.00 255.00 L 44.00 244.00 L 43.00 243.00 L 40.00 228.00 L 35.00 217.00 L 33.00 215.00 Z" fill="#77787B" fill-rule="evenodd"/>
<path d="M 10.00 215.00 L 6.00 217.00 L 3.00 220.00 L 0.00 227.00 L 0.00 261.00 L 4.00 269.00 L 8.00 272.00 L 11.00 273.00 L 25.00 273.00 L 25.00 263.00 L 24.00 262.00 L 24.00 256.00 L 23.00 255.00 L 23.00 250.00 L 22.00 249.00 L 22.00 244.00 L 21.00 243.00 L 21.00 239.00 L 20.00 238.00 L 19.00 231.00 L 13.00 217.00 Z" fill="#77787B" fill-rule="evenodd"/>
<path d="M 1171.00 306.00 L 1171.00 302.00 L 1168.00 297.00 L 1162.00 291.00 L 1162.00 290.00 L 1147.00 276.00 L 1126.00 261.00 L 1109.00 252.00 L 1107.00 250.00 L 1100.00 247.00 L 1097.00 244.00 L 1097.00 243.00 L 1101.00 240.00 L 1112.00 235.00 L 1114.00 233.00 L 1124.00 228.00 L 1150.00 209.00 L 1170.00 188.00 L 1171.00 186.00 L 1171.00 182.00 L 1170.00 181.00 L 1158.00 181.00 L 1156.00 182.00 L 1148.00 193.00 L 1138.00 203.00 L 1123.00 215.00 L 1109.00 224.00 L 1093.00 232.00 L 1091.00 232.00 L 1082.00 236.00 L 1061.00 236.00 L 1060.00 237.00 L 107.00 235.00 L 106.00 234.00 L 89.00 234.00 L 78.00 227.00 L 68.00 222.00 L 64.00 221.00 L 68.00 232.00 L 69.00 240.00 L 70.00 241.00 L 71.00 253.00 L 72.00 254.00 L 72.00 263.00 L 79.00 260.00 L 88.00 254.00 L 94.00 254.00 L 95.00 253.00 L 235.00 253.00 L 236.00 252.00 L 651.00 252.00 L 652.00 251.00 L 1077.00 251.00 L 1078.00 252.00 L 1083.00 252.00 L 1092.00 256.00 L 1094.00 256.00 L 1106.00 262.00 L 1122.00 272.00 L 1136.00 283.00 L 1150.00 297.00 L 1157.00 306.00 L 1159.00 307.00 L 1168.00 307.00 Z" fill="#77787B" fill-rule="evenodd"/>
  </g>
</svg>
